<?xml version="1.0" encoding="utf-8"?>
<!DOCTYPE svg PUBLIC "-//W3C//DTD SVG 1.1//EN" "http://www.w3.org/Graphics/SVG/1.1/DTD/svg11.dtd">
<svg version="1.1" xmlns="http://www.w3.org/2000/svg" xmlns:xlink= "http://www.w3.org/1999/xlink" class="esgi" viewBox="0 0 261.11 193.46" style="enable-background:new 0 0 261.11 193.46;" xml:space="preserve">
	<path class="logo-header-1" d="M229.78,59.78H201.12L192.53,78l21,.1s1.94,9.59-.87,12c-5.6,4.74-9,5.6-16.33,5.6a25.26,25.26,0,0,1-18.75-7.87,26.06,26.06,0,0,1-7.7-18.92,26.42,26.42,0,0,1,7.7-19,25.06,25.06,0,0,1,18.75-8h16.5l9.84-17.75H196.37a43.86,43.86,0,0,0-31.86,13.11,42.74,42.74,0,0,0-13.34,31.64,42.37,42.37,0,0,0,13.34,31.53,44,44,0,0,0,31.86,13c10.78,0,24.49-5.46,30.86-13.88C236.37,87.47,232.39,74.25,229.78,59.78Z"></path>
	<path class="logo-header-1" d="M45.09,41.89H62.71l8.83-17.75H45.09A43.66,43.66,0,0,0,13.28,37.25,42.87,42.87,0,0,0,0,68.89a42.51,42.51,0,0,0,13.28,31.53,43.84,43.84,0,0,0,31.81,13H71.54L62.49,95.68H45.09a25,25,0,0,1-18.64-7.93,26.13,26.13,0,0,1-7.7-18.86,26.53,26.53,0,0,1,7.7-19A24.85,24.85,0,0,1,45.09,41.89Z"></path>
	<path fill="#00eaff" class="logo-header-2" d="M259.16,0a16.17,16.17,0,0,0-11.87,5,16.21,16.21,0,0,0-5,11.88v5.81a16.21,16.21,0,0,0,11.88-5,16.17,16.17,0,0,0,5-11.87V0"></path>
	<path class="logo-header-1" d="M242.32,109.72h18.79V24.16L242.32,35.47Z"></path>
	<path class="logo-header-1" d="M138.84,24.5,130.9,42H100.39a8.71,8.71,0,0,0-8.84,8.84A8.87,8.87,0,0,0,94.1,57.2a8.38,8.38,0,0,0,6.29,2.65h19.7a26,26,0,0,1,10.31,2.06,27.52,27.52,0,0,1,8.44,5.6,25.84,25.84,0,0,1,7.76,18.66,26,26,0,0,1-2.06,10.31,26.7,26.7,0,0,1-14.14,14.13,25.84,25.84,0,0,1-10.31,2.07H81.44L72.8,95.2h47.29a8.73,8.73,0,0,0,9-9,8.57,8.57,0,0,0-2.55-6.29,8.78,8.78,0,0,0-6.48-2.55h-19.7a25.93,25.93,0,0,1-10.31-2.06,25.56,25.56,0,0,1-8.35-5.7,27.52,27.52,0,0,1-5.6-8.44,26.83,26.83,0,0,1,0-20.62,26,26,0,0,1,14-13.95,25.93,25.93,0,0,1,10.31-2.06Z"></path>
	<path fill="#00eaff" class="logo-header-2" d="M64.39,68.15h0c-9.12-11.63-32-11.18-42.14,0h0c10.15,11.18,33,11.63,42.14,0h0Z"></path>
	<path fill="#00eaff" class="logo-header-2 logo-header-baseline" d="M3.06,149.92c0,2.64,1.4,4.31,3.92,4.31a4.59,4.59,0,0,0,3.73-1.57l2,1.85a7.22,7.22,0,0,1-5.76,2.39c-3.86,0-6.92-2-6.92-7.89,0-5,2.58-7.85,6.52-7.85,4.13,0,6.53,3,6.53,7.4v1.36Zm6.5-4.24a3.18,3.18,0,0,0-3-2,3.2,3.2,0,0,0-3.06,2,5,5,0,0,0-.4,2.09H10A4.86,4.86,0,0,0,9.56,145.68Zm-2.19-7.13H5l2.27-4.92h3.43Z"></path>
	<path fill="#00eaff" class="logo-header-2 logo-header-baseline" d="M22.6,156.9c-3.46,0-6.86-2.12-6.86-7.89s3.4-7.85,6.86-7.85a6.3,6.3,0,0,1,5.07,2.15l-2.13,2.06a3.58,3.58,0,0,0-2.94-1.45,3.47,3.47,0,0,0-2.85,1.36,5.67,5.67,0,0,0-.91,3.73,5.8,5.8,0,0,0,.91,3.77,3.47,3.47,0,0,0,2.85,1.36,3.58,3.58,0,0,0,2.94-1.45l2.13,2A6.33,6.33,0,0,1,22.6,156.9Z"></path>
	<path fill="#00eaff" class="logo-header-2 logo-header-baseline" d="M40.38,155.08a6.23,6.23,0,0,1-4.61,1.82,6.18,6.18,0,0,1-4.59-1.82c-1.45-1.51-1.82-3.46-1.82-6.07s.37-4.52,1.82-6a6.15,6.15,0,0,1,4.59-1.82A6.19,6.19,0,0,1,40.38,143c1.46,1.51,1.82,3.46,1.82,6S41.84,153.57,40.38,155.08ZM38,144.8a3.34,3.34,0,0,0-4.52,0c-.94.94-1.06,2.55-1.06,4.21s.12,3.28,1.06,4.22a3.26,3.26,0,0,0,4.52,0c.94-.94,1.06-2.55,1.06-4.22S39,145.74,38,144.8Z"></path>
	<path fill="#00eaff" class="logo-header-2 logo-header-baseline" d="M49.9,156.72a3.92,3.92,0,0,1-4.22-4.25V135.12h3.1v17.17c0,1.18.42,1.79,1.67,1.79h1.36v2.64Z"></path>
	<path fill="#00eaff" class="logo-header-2 logo-header-baseline" d="M56.12,149.92c0,2.64,1.4,4.31,3.91,4.31a4.62,4.62,0,0,0,3.74-1.57l2,1.85A7.25,7.25,0,0,1,60,156.9c-3.85,0-6.91-2-6.91-7.89,0-5,2.57-7.85,6.52-7.85,4.13,0,6.52,3,6.52,7.4v1.36Zm6.49-4.24a3.16,3.16,0,0,0-3-2,3.22,3.22,0,0,0-3.07,2,4.88,4.88,0,0,0-.39,2.09H63A4.72,4.72,0,0,0,62.61,145.68Z"></path>
	<path fill="#00eaff" class="logo-header-2 logo-header-baseline" d="M84.28,156.9c-2.51,0-4.64-.42-6.46-2.21l2-2a6,6,0,0,0,4.43,1.6c1.89,0,3.37-.66,3.37-2.12,0-1-.57-1.7-2.06-1.82l-2.46-.21c-2.88-.25-4.55-1.55-4.55-4.25,0-3,2.58-4.7,5.79-4.7a8.47,8.47,0,0,1,5.71,1.72l-1.94,2a5.82,5.82,0,0,0-3.8-1.13c-1.85,0-2.79.82-2.79,2,0,.91.49,1.6,2.13,1.76l2.42.21c2.89.24,4.59,1.61,4.59,4.34C90.69,155.23,88,156.9,84.28,156.9Z"></path>
	<path fill="#00eaff" class="logo-header-2 logo-header-baseline" d="M103.12,156.72v-1.55A5.47,5.47,0,0,1,99,156.9a5.36,5.36,0,0,1-3.8-1.39,5.67,5.67,0,0,1-1.54-4.34v-9.83h3.09v9.37c0,2.4,1.37,3.43,3.1,3.43s3.18-1.06,3.18-3.43v-9.37h3.1v15.38Z"></path>
	<path fill="#00eaff" class="logo-header-2 logo-header-baseline" d="M121.32,155.54a5.23,5.23,0,0,1-3.73,1.36,4.76,4.76,0,0,1-4-1.76v7.8h-3.1v-21.6h3V143a4.71,4.71,0,0,1,4.06-1.82,5.31,5.31,0,0,1,3.76,1.36c1.55,1.55,1.73,4.16,1.73,6.49S122.87,154,121.32,155.54Zm-4.55-11.62c-2.79,0-3.21,2.36-3.21,5.09s.42,5.13,3.21,5.13S120,151.74,120,149,119.56,143.92,116.77,143.92Z"></path>
	<path fill="#00eaff" class="logo-header-2 logo-header-baseline" d="M128.91,149.92c0,2.64,1.39,4.31,3.91,4.31a4.59,4.59,0,0,0,3.73-1.57l2,1.85a7.22,7.22,0,0,1-5.76,2.39c-3.85,0-6.92-2-6.92-7.89,0-5,2.58-7.85,6.52-7.85,4.13,0,6.53,3,6.53,7.4v1.36Zm6.49-4.24a3.18,3.18,0,0,0-3-2,3.21,3.21,0,0,0-3.06,2,4.88,4.88,0,0,0-.39,2.09h6.91A4.86,4.86,0,0,0,135.4,145.68Zm-2.19-7.13h-2.33l2.27-4.92h3.43Z"></path>
	<path fill="#00eaff" class="logo-header-2 logo-header-baseline" d="M150.84,145a2.86,2.86,0,0,0-2.31-1,3.16,3.16,0,0,0-3.06,3.46v9.34h-3.1V141.34h3V143a5.07,5.07,0,0,1,4.09-1.85,4.75,4.75,0,0,1,3.67,1.45Z"></path>
	<path fill="#00eaff" class="logo-header-2 logo-header-baseline" d="M155,138.3V135h3.28v3.27Zm.09,18.42V141.34h3.1v15.38Z"></path>
	<path fill="#00eaff" class="logo-header-2 logo-header-baseline" d="M164.76,149.92c0,2.64,1.4,4.31,3.92,4.31a4.59,4.59,0,0,0,3.73-1.57l2,1.85a7.23,7.23,0,0,1-5.76,2.39c-3.86,0-6.92-2-6.92-7.89,0-5,2.58-7.85,6.52-7.85,4.13,0,6.52,3,6.52,7.4v1.36Zm6.49-4.24a3.15,3.15,0,0,0-3-2,3.19,3.19,0,0,0-3.06,2,4.73,4.73,0,0,0-.4,2.09h6.92A4.72,4.72,0,0,0,171.25,145.68Z"></path>
	<path fill="#00eaff" class="logo-header-2 logo-header-baseline" d="M187.51,156.72v-1.55a5.47,5.47,0,0,1-4.09,1.73,5.32,5.32,0,0,1-3.79-1.39,5.64,5.64,0,0,1-1.55-4.34v-9.83h3.09v9.37c0,2.4,1.37,3.43,3.1,3.43s3.18-1.06,3.18-3.43v-9.37h3.1v15.38Z"></path>
	<path fill="#00eaff" class="logo-header-2 logo-header-baseline" d="M203.32,145a2.86,2.86,0,0,0-2.31-1,3.16,3.16,0,0,0-3.06,3.46v9.34h-3.1V141.34h3V143a5.07,5.07,0,0,1,4.09-1.85,4.75,4.75,0,0,1,3.67,1.45Z"></path>
	<path fill="#00eaff" class="logo-header-2 logo-header-baseline" d="M208.9,149.92c0,2.64,1.39,4.31,3.91,4.31a4.59,4.59,0,0,0,3.73-1.57l2,1.85a7.25,7.25,0,0,1-5.77,2.39c-3.85,0-6.92-2-6.92-7.89,0-5,2.58-7.85,6.53-7.85,4.12,0,6.52,3,6.52,7.4v1.36Zm6.49-4.24a3.16,3.16,0,0,0-3-2,3.22,3.22,0,0,0-3.07,2,4.88,4.88,0,0,0-.39,2.09h6.92A4.72,4.72,0,0,0,215.39,145.68Z"></path>
	<path fill="#00eaff" class="logo-header-2 logo-header-baseline" d="M240.92,156.72v-1.64a4.74,4.74,0,0,1-4.07,1.82,5.31,5.31,0,0,1-3.76-1.36c-1.55-1.55-1.73-4.19-1.73-6.53s.18-4.94,1.73-6.49a5.23,5.23,0,0,1,3.73-1.36,4.75,4.75,0,0,1,4,1.72v-7.76H244v21.6Zm-3.25-12.8c-2.79,0-3.22,2.36-3.22,5.09s.43,5.13,3.22,5.13,3.18-2.4,3.18-5.13S240.46,143.92,237.67,143.92Z"></path>
	<path fill="#00eaff" class="logo-header-2 logo-header-baseline" d="M250.53,149.92c0,2.64,1.4,4.31,3.91,4.31a4.62,4.62,0,0,0,3.74-1.57l2,1.85a7.25,7.25,0,0,1-5.77,2.39c-3.85,0-6.91-2-6.91-7.89,0-5,2.57-7.85,6.52-7.85,4.13,0,6.52,3,6.52,7.4v1.36Zm6.49-4.24a3.15,3.15,0,0,0-3-2,3.22,3.22,0,0,0-3.07,2,4.88,4.88,0,0,0-.39,2.09h6.92A4.72,4.72,0,0,0,257,145.68Z"></path>
	<path fill="#00eaff" class="logo-header-2 logo-header-baseline" d="M6,193.46a7.08,7.08,0,0,1-5.43-2l2-2a4.33,4.33,0,0,0,3.34,1.37c2.6,0,3.61-1.85,3.61-3.92v-2a4.75,4.75,0,0,1-4,1.76,5.08,5.08,0,0,1-3.67-1.36C.3,183.84.06,181.69.06,179.08s.24-4.77,1.73-6.25a5.15,5.15,0,0,1,3.7-1.34,4.72,4.72,0,0,1,4,1.82v-1.64h3V187A6.17,6.17,0,0,1,6,193.46Zm.36-19.21c-2.79,0-3.15,2.4-3.15,4.83s.36,4.82,3.15,4.82,3.13-2.4,3.13-4.82S9.1,174.25,6.31,174.25Z"></path>
	<path fill="#00eaff" class="logo-header-2 logo-header-baseline" d="M19.87,180.26c0,2.64,1.4,4.31,3.91,4.31A4.63,4.63,0,0,0,27.52,183l2,1.85a7.23,7.23,0,0,1-5.77,2.4c-3.85,0-6.91-2-6.91-7.89,0-5,2.57-7.86,6.52-7.86,4.13,0,6.52,3,6.52,7.4v1.37ZM26.36,176a3.16,3.16,0,0,0-3-1.94A3.22,3.22,0,0,0,20.26,176a4.91,4.91,0,0,0-.39,2.09h6.92A4.75,4.75,0,0,0,26.36,176Zm-2.18-7.13H21.84L24.12,164h3.43Z"></path>
	<path fill="#00eaff" class="logo-header-2 logo-header-baseline" d="M43.47,187.06v-9.38c0-2.4-1.36-3.43-3.09-3.43s-3.19,1.06-3.19,3.43v9.38H34.1V171.67h3v1.55a5.52,5.52,0,0,1,4.1-1.73,5.34,5.34,0,0,1,3.79,1.4,5.66,5.66,0,0,1,1.55,4.34v9.83Z"></path>
	<path fill="#00eaff" class="logo-header-2 logo-header-baseline" d="M51.39,168.64v-3.28h3.27v3.28Zm.09,18.42V171.67h3.09v15.39Z"></path>
	<path fill="#00eaff" class="logo-header-2 logo-header-baseline" d="M61.91,180.26c0,2.64,1.4,4.31,3.92,4.31A4.6,4.6,0,0,0,69.56,183l2,1.85a7.21,7.21,0,0,1-5.76,2.4c-3.86,0-6.92-2-6.92-7.89,0-5,2.58-7.86,6.52-7.86,4.13,0,6.53,3,6.53,7.4v1.37Zm6.5-4.25a3.37,3.37,0,0,0-6.1,0,4.76,4.76,0,0,0-.4,2.09h6.92A4.89,4.89,0,0,0,68.41,176Z"></path>
	<path fill="#00eaff" class="logo-header-2 logo-header-baseline" d="M87.12,168.64v-3.28h3.27v3.28Zm.09,18.42V171.67H90.3v15.39Z"></path>
	<path fill="#00eaff" class="logo-header-2 logo-header-baseline" d="M104.74,187.06v-9.38c0-2.4-1.36-3.43-3.09-3.43s-3.19,1.06-3.19,3.43v9.38H95.37V171.67h3v1.55a5.52,5.52,0,0,1,4.1-1.73,5.34,5.34,0,0,1,3.79,1.4,5.66,5.66,0,0,1,1.55,4.34v9.83Z"></path>
	<path fill="#00eaff" class="logo-header-2 logo-header-baseline" d="M116.33,174.31v12.75h-3.1V174.31h-1.76V172h1.76v-2.37a4,4,0,0,1,4.22-4.28h1.94v2.64H118a1.56,1.56,0,0,0-1.7,1.79V172h3.06v2.36Z"></path>
	<path fill="#00eaff" class="logo-header-2 logo-header-baseline" d="M132.65,185.42a6.23,6.23,0,0,1-4.61,1.82,6.14,6.14,0,0,1-4.58-1.82c-1.46-1.52-1.82-3.46-1.82-6.07s.36-4.52,1.82-6a6.14,6.14,0,0,1,4.58-1.82,6.23,6.23,0,0,1,4.61,1.82c1.46,1.52,1.82,3.46,1.82,6S134.11,183.9,132.65,185.42Zm-2.34-10.29a3.34,3.34,0,0,0-4.52,0c-.94.94-1.06,2.55-1.06,4.22s.12,3.28,1.06,4.22a3.26,3.26,0,0,0,4.52,0c.95-.94,1.07-2.55,1.07-4.22S131.26,176.07,130.31,175.13Z"></path>
	<path fill="#00eaff" class="logo-header-2 logo-header-baseline" d="M147.27,175.28a2.88,2.88,0,0,0-2.31-1,3.17,3.17,0,0,0-3.06,3.46v9.35h-3.09V171.67h3v1.67a5.12,5.12,0,0,1,4.1-1.85,4.74,4.74,0,0,1,3.67,1.46Z"></path>
	<path fill="#00eaff" class="logo-header-2 logo-header-baseline" d="M171,187.06v-9.38c0-2.4-1.37-3.43-3.1-3.43a3,3,0,0,0-3.19,3.28v9.53h-3.09v-9.38c0-2.4-1.37-3.43-3.09-3.43s-3.19,1.06-3.19,3.43v9.38h-3.1V171.67h3v1.55a5.58,5.58,0,0,1,4.1-1.73,4.9,4.9,0,0,1,4.36,2.25,5.86,5.86,0,0,1,4.83-2.25,5.55,5.55,0,0,1,3.88,1.4,5.69,5.69,0,0,1,1.64,4.34v9.83Z"></path>
	<path fill="#00eaff" class="logo-header-2 logo-header-baseline" d="M187.31,187.06v-1.4a5.06,5.06,0,0,1-4.09,1.58,5.45,5.45,0,0,1-4.13-1.4,4.71,4.71,0,0,1-1.21-3.31c0-2.57,1.79-4.43,5.31-4.43h4.06V177c0-1.94-1-2.88-3.37-2.88a3.59,3.59,0,0,0-3.36,1.49l-2-1.91c1.46-1.7,3-2.22,5.53-2.22,4.21,0,6.34,1.79,6.34,5.28v10.29Zm-.06-6.8h-3.61c-1.82,0-2.76.82-2.76,2.21s.88,2.19,2.82,2.19a3.65,3.65,0,0,0,2.88-.88,3.08,3.08,0,0,0,.67-2.28Z"></path>
	<path fill="#00eaff" class="logo-header-2 logo-header-baseline" d="M199.84,187.06a4,4,0,0,1-4.22-4.28v-8.47h-1.76V172h1.76v-4.68h3.1V172h3v2.36h-3v8.32a1.56,1.56,0,0,0,1.7,1.79h1.27v2.64Z"></path>
	<path fill="#00eaff" class="logo-header-2 logo-header-baseline" d="M205.7,168.64v-3.28H209v3.28Zm.09,18.42V171.67h3.09v15.39Z"></path>
	<path fill="#00eaff" class="logo-header-2 logo-header-baseline" d="M222.71,193.28v-7.8a4.78,4.78,0,0,1-4,1.76,5.24,5.24,0,0,1-3.73-1.37c-1.55-1.55-1.73-4.18-1.73-6.52s.18-4.95,1.73-6.49a5.31,5.31,0,0,1,3.76-1.37,4.74,4.74,0,0,1,4.07,1.82v-1.64h3v21.61Zm-3.18-19c-2.79,0-3.22,2.37-3.22,5.1s.43,5.13,3.22,5.13,3.18-2.4,3.18-5.13S222.32,174.25,219.53,174.25Z"></path>
	<path fill="#00eaff" class="logo-header-2 logo-header-baseline" d="M240.16,187.06v-1.55a5.53,5.53,0,0,1-4.1,1.73,5.33,5.33,0,0,1-3.79-1.4,5.66,5.66,0,0,1-1.55-4.34v-9.83h3.1v9.38c0,2.4,1.36,3.43,3.09,3.43s3.19-1.06,3.19-3.43v-9.38h3.09v15.39Z"></path>
	<path fill="#00eaff" class="logo-header-2 logo-header-baseline" d="M250.53,180.26c0,2.64,1.39,4.31,3.91,4.31a4.63,4.63,0,0,0,3.74-1.58l2,1.85a7.23,7.23,0,0,1-5.77,2.4c-3.85,0-6.92-2-6.92-7.89,0-5,2.58-7.86,6.53-7.86,4.12,0,6.52,3,6.52,7.4v1.37ZM257,176a3.17,3.17,0,0,0-3-1.94,3.22,3.22,0,0,0-3.07,1.94,4.91,4.91,0,0,0-.39,2.09h6.92A4.75,4.75,0,0,0,257,176Z"></path>
</svg>
